<svg width="976" height="188" viewBox="0 0 976 188" fill="none" xmlns="http://www.w3.org/2000/svg">
<path d="M48.0895 185H0.859375L62.2053 3.18181H120.71L182.056 185H134.826L92.1236 48.9915H90.7031L48.0895 185ZM41.7862 113.445H140.508V146.825H41.7862V113.445ZM201.632 3.18181H256.053L302.218 115.753H304.348L350.513 3.18181H404.934V185H362.143V73.3168H360.634L316.955 183.846H289.611L245.932 72.6953H244.423V185H201.632V3.18181ZM603.953 94.0909C603.953 114.096 600.106 131.052 592.412 144.961C584.718 158.87 574.301 169.434 561.162 176.655C548.082 183.875 533.404 187.486 517.128 187.486C500.793 187.486 486.085 183.846 473.005 176.566C459.925 169.286 449.538 158.722 441.844 144.872C434.209 130.964 430.392 114.036 430.392 94.0909C430.392 74.0862 434.209 57.1295 441.844 43.2209C449.538 29.3123 459.925 18.7476 473.005 11.527C486.085 4.30634 500.793 0.696016 517.128 0.696016C533.404 0.696016 548.082 4.30634 561.162 11.527C574.301 18.7476 584.718 29.3123 592.412 43.2209C600.106 57.1295 603.953 74.0862 603.953 94.0909ZM559.031 94.0909C559.031 82.2538 557.345 72.2514 553.971 64.0838C550.657 55.9162 545.863 49.7313 539.589 45.5291C533.374 41.3269 525.887 39.2258 517.128 39.2258C508.428 39.2258 500.941 41.3269 494.667 45.5291C488.393 49.7313 483.57 55.9162 480.196 64.0838C476.882 72.2514 475.225 82.2538 475.225 94.0909C475.225 105.928 476.882 115.93 480.196 124.098C483.57 132.266 488.393 138.451 494.667 142.653C500.941 146.855 508.428 148.956 517.128 148.956C525.887 148.956 533.374 146.855 539.589 142.653C545.863 138.451 550.657 132.266 553.971 124.098C557.345 115.93 559.031 105.928 559.031 94.0909ZM748.928 62.5746C747.922 58.8459 746.443 55.5611 744.49 52.7202C742.536 49.8201 740.139 47.3639 737.298 45.3516C734.458 43.3393 731.202 41.83 727.533 40.8239C723.863 39.7585 719.839 39.2258 715.459 39.2258C706.64 39.2258 699.005 41.3565 692.554 45.6179C686.162 49.8793 681.22 56.0937 677.728 64.2614C674.236 72.3698 672.49 82.2242 672.49 93.8246C672.49 105.484 674.177 115.427 677.551 123.654C680.924 131.881 685.807 138.155 692.199 142.475C698.591 146.796 706.344 148.956 715.459 148.956C723.508 148.956 730.315 147.654 735.878 145.05C741.501 142.386 745.762 138.628 748.662 133.775C751.562 128.922 753.012 123.21 753.012 116.641L761.18 117.617H716.968V85.5682H795.36V109.627C795.36 125.903 791.897 139.841 784.972 151.442C778.107 163.042 768.637 171.95 756.563 178.164C744.549 184.379 730.729 187.486 715.104 187.486C697.762 187.486 682.522 183.728 669.383 176.211C656.244 168.694 646.005 157.982 638.666 144.073C631.327 130.105 627.657 113.533 627.657 94.3572C627.657 79.4425 629.877 66.2145 634.316 54.6733C638.754 43.0729 644.939 33.2481 652.87 25.1989C660.86 17.1496 670.093 11.0535 680.569 6.9105C691.104 2.76751 702.438 0.696016 714.571 0.696016C725.106 0.696016 734.901 2.20525 743.957 5.22372C753.071 8.24219 761.121 12.5036 768.105 18.0078C775.148 23.5121 780.859 30.0521 785.239 37.6278C789.619 45.2036 792.341 53.5192 793.406 62.5746H748.928ZM931.257 3.18181H975.114V120.458C975.114 134.012 971.888 145.819 965.437 155.881C958.986 165.883 949.989 173.636 938.448 179.141C926.907 184.586 913.501 187.308 898.232 187.308C882.784 187.308 869.29 184.586 857.749 179.141C846.207 173.636 837.241 165.883 830.849 155.881C824.457 145.819 821.261 134.012 821.261 120.458V3.18181H865.206V116.641C865.206 122.914 866.567 128.507 869.29 133.42C872.071 138.332 875.948 142.179 880.92 144.961C885.891 147.743 891.662 149.134 898.232 149.134C904.801 149.134 910.542 147.743 915.455 144.961C920.426 142.179 924.303 138.332 927.085 133.42C929.866 128.507 931.257 122.914 931.257 116.641V3.18181Z" fill="black"/>
</svg>
