<svg width="86" height="86" viewBox="0 0 86 86" fill="none" xmlns="http://www.w3.org/2000/svg">
<rect x="48.6602" width="12.1112" height="12.1112" transform="rotate(90 48.6602 0)" fill="white"/>
<rect x="42.6045" y="5.10352" width="54" height="54" transform="rotate(45 42.6045 5.10352)" fill="white"/>
<rect x="17.168" y="9.28711" width="12.1112" height="12.1112" transform="rotate(45 17.168 9.28711)" fill="white"/>
<rect x="68.8574" y="9.28711" width="12.1112" height="12.1112" transform="rotate(45 68.8574 9.28711)" fill="white"/>
<rect x="43.29" y="18.0034" width="36.7259" height="36.7259" transform="rotate(45 43.29 18.0034)" fill="white"/>
<rect x="60.9678" y="24.6338" width="36.7259" height="36.7259" transform="rotate(90 60.9678 24.6338)" fill="white"/>
<rect x="12.1113" y="36.5488" width="12.1112" height="12.1112" transform="rotate(90 12.1113 36.5488)" fill="white"/>
<rect x="85.209" y="36.5488" width="12.1112" height="12.1112" transform="rotate(90 85.209 36.5488)" fill="white"/>
<rect x="17.168" y="60.9751" width="12.1112" height="12.1112" transform="rotate(45 17.168 60.9751)" fill="white"/>
<rect x="68.8574" y="60.9751" width="12.1112" height="12.1112" transform="rotate(45 68.8574 60.9751)" fill="white"/>
<rect x="48.6602" y="73.0981" width="12.1112" height="12.1112" transform="rotate(90 48.6602 73.0981)" fill="white"/>
</svg>
