<svg width="313" height="171" viewBox="0 0 313 171" fill="none" xmlns="http://www.w3.org/2000/svg">
<path d="M123.5 0H216.5L174.5 50H81.5L123.5 0Z" fill="black"/>
<path d="M241.5 115H131.5L165.5 77L262 79L241.5 115Z" fill="black"/>
<path d="M262.25 132L251 109.5L263.5 87L287 132H262.25Z" fill="black"/>
<path d="M224.5 71L202 36.5L222 9.5L258 71H224.5Z" fill="black"/>
<path d="M225 67.5H176.5L194 46.5H212L225 67.5Z" fill="black"/>
<path d="M154.5 171H67.5L109.5 121H184.5L154.5 171Z" fill="black"/>
<path d="M107.5 50H174.5L70.5 171L0 170.5L107.5 50Z" fill="black"/>
<path d="M198 115H241.5L212 171H164L198 115Z" fill="black"/>
<path d="M229 138L211.5 171H313L293.5 138H229Z" fill="black"/>
</svg>
