<svg width="127" height="70" viewBox="0 0 127 70" fill="none" xmlns="http://www.w3.org/2000/svg">
<path d="M49.8909 0H87.4609L70.4938 20.1989H32.9238L49.8909 0Z" fill="#EDB842"/>
<path d="M97.5602 46.4575H53.1227L66.8579 31.1064L105.842 31.9143L97.5602 46.4575Z" fill="#EDB842"/>
<path d="M105.943 53.3251L101.398 44.2356L106.448 35.1461L115.941 53.3251H105.943Z" fill="#EDB842"/>
<path d="M90.6933 28.6825L81.6038 14.7453L89.6834 3.83785L104.227 28.6825H90.6933Z" fill="#EDB842"/>
<path d="M90.8955 27.2686H71.3026L78.3722 18.785H85.6438L90.8955 27.2686Z" fill="#EDB842"/>
<path d="M62.4148 69.0802H27.2688L44.2358 48.8813H74.5342L62.4148 69.0802Z" fill="#EDB842"/>
<path d="M43.4276 20.1989H70.4942L28.4804 69.0802L0 68.8782L43.4276 20.1989Z" fill="#EDB842"/>
<path d="M79.9872 46.4575H97.5602L85.6429 69.0803H66.252L79.9872 46.4575Z" fill="#EDB842"/>
<path d="M92.511 55.7489L85.4414 69.0802H126.445L118.568 55.7489H92.511Z" fill="#EDB842"/>
</svg>
